<?xml version="1.0" encoding="utf-8"?><svg xmlns="http://www.w3.org/2000/svg" xmlns:xlink="http://www.w3.org/1999/xlink" width="729" height="993" preserveAspectRatio="xMidYMid" viewBox="0 0 729 993" style="z-index:1;margin-right:-2px;display:block;background-repeat-y:initial;background-repeat-x:initial;background-color:rgb(153, 204, 255);animation-play-state:paused" ><g transform="translate(364.5,496.5) scale(1,1) translate(-364.5,-496.5)" style="transform:matrix(1, 0, 0, 1, 0, 0);animation-play-state:paused" ><defs style="animation-play-state:paused" ><linearGradient id="lg-0.18990267196251298" x1="0" x2="0" y1="0" y2="1" style="animation-play-state:paused" ><stop stop-color="#3184ce" offset="0" style="animation-play-state:paused" ></stop>

  
<stop stop-color="#e9f6ff" offset="1" style="animation-play-state:paused" ></stop></linearGradient></defs>


<rect x="0" y="0" width="729" height="993" fill="url(#lg-0.18990267196251298)" style="animation-play-state:paused" ></rect>
<circle cx="0" cy="565.5658208181042" r="46.19514931824658" fill="#91cbf0" transform="matrix(1,0,0,1,0,0)" style="transform:matrix(1, 0, 0, 1, 0, 0);animation-play-state:paused" ></circle>
<circle cx="46.19514931824658" cy="535.8302831941639" r="81.2752348082759" fill="#91cbf0" transform="matrix(1,0,0,1,-0.005429744720458984,0)" style="transform:matrix(1, 0, 0, 1, -0.00542974, 0);animation-play-state:paused" ></circle>
<circle cx="127.47038412652248" cy="583.2420263619007" r="48.38629320774254" fill="#91cbf0" transform="matrix(1,0,0,1,-0.022117653861641884,0)" style="transform:matrix(1, 0, 0, 1, -0.0221177, 0);animation-play-state:paused" ></circle>
<circle cx="175.85667733426502" cy="584.2273621937171" r="59.21062339137478" fill="#91cbf0" transform="matrix(1,0,0,1,-0.05069183558225632,0)" style="transform:matrix(1, 0, 0, 1, -0.0506918, 0);animation-play-state:paused" ></circle>
<circle cx="235.0673007256398" cy="603.2844361783615" r="41.57452128396324" fill="#91cbf0" transform="matrix(1,0,0,1,-0.09182170033454895,0)" style="transform:matrix(1, 0, 0, 1, -0.0918217, 0);animation-play-state:paused" ></circle>
<circle cx="276.64182200960306" cy="596.5769072300563" r="84.4373807715572" fill="#91cbf0" transform="matrix(1,0,0,1,-0.14621886610984802,0)" style="transform:matrix(1, 0, 0, 1, -0.146219, 0);animation-play-state:paused" ></circle>
<circle cx="361.07920278116023" cy="619.9903709100596" r="89.65010681732451" fill="#91cbf0" transform="matrix(1,0,0,1,-0.21463720500469208,0)" style="transform:matrix(1, 0, 0, 1, -0.214637, 0);animation-play-state:paused" ></circle>
<circle cx="450.72930959848475" cy="598.8939629003015" r="77.87037609717125" fill="#91cbf0" transform="matrix(1,0,0,1,-0.2978716492652893,0)" style="transform:matrix(1, 0, 0, 1, -0.297872, 0);animation-play-state:paused" ></circle>
<circle cx="528.599685695656" cy="603.7051119306508" r="32.012993984691526" fill="#91cbf0" transform="matrix(1,0,0,1,-0.3967548906803131,0)" style="transform:matrix(1, 0, 0, 1, -0.396755, 0);animation-play-state:paused" ></circle>
<circle cx="560.6126796803476" cy="587.665210017603" r="51.63073837783949" fill="#91cbf0" transform="matrix(1,0,0,1,-0.5121519565582275,0)" style="transform:matrix(1, 0, 0, 1, -0.512152, 0);animation-play-state:paused" ></circle>
<circle cx="612.2434180581871" cy="573.2639761987004" r="58.527557839051035" fill="#91cbf0" transform="matrix(1,0,0,1,-0.6449503302574158,0)" style="transform:matrix(1, 0, 0, 1, -0.64495, 0);animation-play-state:paused" ></circle>
<circle cx="670.7709758972381" cy="528.5538095760172" r="91.68524787248046" fill="#91cbf0" transform="matrix(1,0,0,1,-0.7960466146469116,0)" style="transform:matrix(1, 0, 0, 1, -0.796047, 0);animation-play-state:paused" ></circle>
<circle cx="762.4562237697186" cy="514.1594379558782" r="81.54872014184448" fill="#91cbf0" transform="matrix(1,0,0,1,-0.9663257002830505,0)" style="transform:matrix(1, 0, 0, 1, -0.966326, 0);animation-play-state:paused" ></circle>
<circle cx="0" cy="642.9779325889856" r="33.351722842512004" fill="#a8d1f5" transform="matrix(1,0,0,1,0,0)" style="transform:matrix(1, 0, 0, 1, 0, 0);animation-play-state:paused" ></circle>
<circle cx="33.351722842512004" cy="598.9422607001196" r="77.1030383473681" fill="#a8d1f5" transform="matrix(1,0,0,1,-0.022117653861641884,0)" style="transform:matrix(1, 0, 0, 1, -0.0221177, 0);animation-play-state:paused" ></circle>
<circle cx="110.4547611898801" cy="629.588930443318" r="63.861115657310684" fill="#a8d1f5" transform="matrix(1,0,0,1,-0.09182170033454895,0)" style="transform:matrix(1, 0, 0, 1, -0.0918217, 0);animation-play-state:paused" ></circle>
<circle cx="174.3158768471908" cy="642.5453070681009" r="64.61166565513513" fill="#a8d1f5" transform="matrix(1,0,0,1,-0.21463720500469208,0)" style="transform:matrix(1, 0, 0, 1, -0.214637, 0);animation-play-state:paused" ></circle>
<circle cx="238.92754250232593" cy="652.4054997380972" r="74.00571462675327" fill="#a8d1f5" transform="matrix(1,0,0,1,-0.3967548906803131,0)" style="transform:matrix(1, 0, 0, 1, -0.396755, 0);animation-play-state:paused" ></circle>
<circle cx="312.9332571290792" cy="673.6397946479556" r="55.13558191566122" fill="#a8d1f5" transform="matrix(1,0,0,1,-0.6449503302574158,0)" style="transform:matrix(1, 0, 0, 1, -0.64495, 0);animation-play-state:paused" ></circle>
<circle cx="368.06883904474046" cy="682.2630182132311" r="62.725781388473685" fill="#a8d1f5" transform="matrix(1,0,0,1,-0.9663257002830505,0)" style="transform:matrix(1, 0, 0, 1, -0.966326, 0);animation-play-state:paused" ></circle>
<circle cx="430.79462043321416" cy="667.2575402062613" r="72.12911290691129" fill="#a8d1f5" transform="matrix(1,0,0,1,-1.3677335977554321,0)" style="transform:matrix(1, 0, 0, 1, -1.36773, 0);animation-play-state:paused" ></circle>
<circle cx="502.92373334012547" cy="652.224926201194" r="67.53125667704846" fill="#a8d1f5" transform="matrix(1,0,0,1,-1.8546782732009888,0)" style="transform:matrix(1, 0, 0, 1, -1.85468, 0);animation-play-state:paused" ></circle>
<circle cx="570.4549900171739" cy="630.5302990524252" r="77.38424624475886" fill="#a8d1f5" transform="matrix(1,0,0,1,-2.4294803142547607,0)" style="transform:matrix(1, 0, 0, 1, -2.42948, 0);animation-play-state:paused" ></circle>
<circle cx="647.8392362619328" cy="637.7797468055227" r="48.477761460204405" fill="#a8d1f5" transform="matrix(1,0,0,1,-3.0886495113372803,0)" style="transform:matrix(1, 0, 0, 1, -3.08865, 0);animation-play-state:paused" ></circle>
<circle cx="696.3169977221372" cy="620.5936438148195" r="57.127666217757195" fill="#a8d1f5" transform="matrix(1,0,0,1,-3.819972276687622,0)" style="transform:matrix(1, 0, 0, 1, -3.81997, 0);animation-play-state:paused" ></circle>
<circle cx="753.4446639398944" cy="642.6577789565296" r="31.50563763447804" fill="#a8d1f5" transform="matrix(1,0,0,1,-4.60075569152832,0)" style="transform:matrix(1, 0, 0, 1, -4.60076, 0);animation-play-state:paused" ></circle>
<circle cx="0" cy="646.0675514307475" r="82.4437071410438" fill="#bdd7f8" transform="matrix(1,0,0,1,0,0)" style="transform:matrix(1, 0, 0, 1, 0, 0);animation-play-state:paused" ></circle>
<circle cx="82.4437071410438" cy="668.5856698002782" r="82.29156159891885" fill="#bdd7f8" transform="matrix(1,0,0,1,-0.05069185048341751,0)" style="transform:matrix(1, 0, 0, 1, -0.0506919, 0);animation-play-state:paused" ></circle>
<circle cx="164.73526873996263" cy="717.188233248994" r="42.28886699535255" fill="#bdd7f8" transform="matrix(1,0,0,1,-0.21463724970817566,0)" style="transform:matrix(1, 0, 0, 1, -0.214637, 0);animation-play-state:paused" ></circle>
<circle cx="207.02413573531518" cy="707.7169127336715" r="71.91411718885817" fill="#bdd7f8" transform="matrix(1,0,0,1,-0.5121520161628723,0)" style="transform:matrix(1, 0, 0, 1, -0.512152, 0);animation-play-state:paused" ></circle>
<circle cx="278.93825292417336" cy="731.2656390130966" r="48.757912178613786" fill="#bdd7f8" transform="matrix(1,0,0,1,-0.9663259983062744,0)" style="transform:matrix(1, 0, 0, 1, -0.966326, 0);animation-play-state:paused" ></circle>
<circle cx="327.6961651027871" cy="739.9306048810753" r="41.83881303874613" fill="#bdd7f8" transform="matrix(1,0,0,1,-1.6002674102783203,0)" style="transform:matrix(1, 0, 0, 1, -1.60027, 0);animation-play-state:paused" ></circle>
<circle cx="369.53497814153326" cy="744.2140106566493" r="47.417139922296805" fill="#bdd7f8" transform="matrix(1,0,0,1,-2.429480791091919,0)" style="transform:matrix(1, 0, 0, 1, -2.42948, 0);animation-play-state:paused" ></circle>
<circle cx="416.9521180638301" cy="736.2047703541824" r="50.933138708832345" fill="#bdd7f8" transform="matrix(1,0,0,1,-3.4464619159698486,0)" style="transform:matrix(1, 0, 0, 1, -3.44646, 0);animation-play-state:paused" ></circle>
<circle cx="467.88525677266244" cy="721.0337702755421" r="70.41373698777753" fill="#bdd7f8" transform="matrix(1,0,0,1,-4.600757122039795,0)" style="transform:matrix(1, 0, 0, 1, -4.60076, 0);animation-play-state:paused" ></circle>
<circle cx="538.29899376044" cy="711.1447542993219" r="59.16910483242225" fill="#bdd7f8" transform="matrix(1,0,0,1,-5.794002532958984,0)" style="transform:matrix(1, 0, 0, 1, -5.794, 0);animation-play-state:paused" ></circle>
<circle cx="597.4680985928622" cy="690.7090743713844" r="70.78595206510057" fill="#bdd7f8" transform="matrix(1,0,0,1,-6.911351680755615,0)" style="transform:matrix(1, 0, 0, 1, -6.91135, 0);animation-play-state:paused" ></circle>
<circle cx="668.2540506579628" cy="696.6399437767984" r="48.359411326297646" fill="#bdd7f8" transform="matrix(1,0,0,1,-7.868857383728027,0)" style="transform:matrix(1, 0, 0, 1, -7.86886, 0);animation-play-state:paused" ></circle>
<circle cx="716.6134619842604" cy="637.2414625243697" r="92.95769486849619" fill="#bdd7f8" transform="matrix(1,0,0,1,-8.632266998291016,0)" style="transform:matrix(1, 0, 0, 1, -8.63227, 0);animation-play-state:paused" ></circle>
<circle cx="0" cy="758.1224511303539" r="40.73129072470513" fill="#cfddfa" transform="matrix(1,0,0,1,0,0)" style="transform:matrix(1, 0, 0, 1, 0, 0);animation-play-state:paused" ></circle>
<circle cx="40.73129072470513" cy="731.2418655090962" r="71.07398798086354" fill="#cfddfa" transform="matrix(1,0,0,1,-0.09182170033454895,0)" style="transform:matrix(1, 0, 0, 1, -0.0918217, 0);animation-play-state:paused" ></circle>
<circle cx="111.80527870556867" cy="772.7891082509555" r="41.12297366380039" fill="#cfddfa" transform="matrix(1,0,0,1,-0.3967548906803131,0)" style="transform:matrix(1, 0, 0, 1, -0.396755, 0);animation-play-state:paused" ></circle>
<circle cx="152.92825236936906" cy="758.3260247806891" r="69.88040765573932" fill="#cfddfa" transform="matrix(1,0,0,1,-0.9663257002830505,0)" style="transform:matrix(1, 0, 0, 1, -0.966326, 0);animation-play-state:paused" ></circle>
<circle cx="222.8086600251084" cy="790.6524670159696" r="35.044930373155815" fill="#cfddfa" transform="matrix(1,0,0,1,-1.8546782732009888,0)" style="transform:matrix(1, 0, 0, 1, -1.85468, 0);animation-play-state:paused" ></circle>
<circle cx="257.8535903982642" cy="776.4881530517697" r="86.90375555197416" fill="#cfddfa" transform="matrix(1,0,0,1,-3.0886495113372803,0)" style="transform:matrix(1, 0, 0, 1, -3.08865, 0);animation-play-state:paused" ></circle>
<circle cx="344.75734595023835" cy="802.4220100026304" r="70.43452507429312" fill="#cfddfa" transform="matrix(1,0,0,1,-4.60075569152832,0)" style="transform:matrix(1, 0, 0, 1, -4.60076, 0);animation-play-state:paused" ></circle>
<circle cx="415.19187102453145" cy="798.4999344287321" r="50.93311541061823" fill="#cfddfa" transform="matrix(1,0,0,1,-6.180027961730957,0)" style="transform:matrix(1, 0, 0, 1, -6.18003, 0);animation-play-state:paused" ></circle>
<circle cx="466.1249864351497" cy="787.71517199793" r="57.6410065192658" fill="#cfddfa" transform="matrix(1,0,0,1,-7.57051944732666,0)" style="transform:matrix(1, 0, 0, 1, -7.57052, 0);animation-play-state:paused" ></circle>
<circle cx="523.7659929544155" cy="767.8406335812069" r="74.68422686513394" fill="#cfddfa" transform="matrix(1,0,0,1,-8.632266998291016,0)" style="transform:matrix(1, 0, 0, 1, -8.63227, 0);animation-play-state:paused" ></circle>
<circle cx="598.4502198195495" cy="763.72328481506" r="56.188458585611876" fill="#cfddfa" transform="matrix(1,0,0,1,-9.355050086975098,0)" style="transform:matrix(1, 0, 0, 1, -9.35505, 0);animation-play-state:paused" ></circle>
<circle cx="654.6386784051614" cy="729.516167178702" r="81.11884409497125" fill="#cfddfa" transform="matrix(1,0,0,1,-9.785362243652344,0)" style="transform:matrix(1, 0, 0, 1, -9.78536, 0);animation-play-state:paused" ></circle>
<circle cx="735.7575225001326" cy="751.519465194439" r="45.39224507480016" fill="#cfddfa" transform="matrix(1,0,0,1,-9.977882385253906,0)" style="transform:matrix(1, 0, 0, 1, -9.97788, 0);animation-play-state:paused" ></circle>
<circle cx="781.1497675749328" cy="726.8836252313388" r="58.40720607531419" fill="#cfddfa" transform="matrix(1,0,0,1,-9.977882385253906,0)" style="transform:matrix(1, 0, 0, 1, -9.97788, 0);animation-play-state:paused" ></circle>
<circle cx="0" cy="797.2839410153699" r="59.76338248719173" fill="#dfe5fb" transform="matrix(1,0,0,1,0,0)" style="transform:matrix(1, 0, 0, 1, 0, 0);animation-play-state:paused" ></circle>
<circle cx="59.76338248719173" cy="776.1774304921643" r="92.52204647451029" fill="#dfe5fb" transform="matrix(1,0,0,1,-0.14621886610984802,0)" style="transform:matrix(1, 0, 0, 1, -0.146219, 0);animation-play-state:paused" ></circle>
<circle cx="152.28542896170202" cy="827.5405109900765" r="59.342389757447684" fill="#dfe5fb" transform="matrix(1,0,0,1,-0.6449503302574158,0)" style="transform:matrix(1, 0, 0, 1, -0.64495, 0);animation-play-state:paused" ></circle>
<circle cx="211.6278187191497" cy="825.5495476022484" r="86.33405244326386" fill="#dfe5fb" transform="matrix(1,0,0,1,-1.600266933441162,0)" style="transform:matrix(1, 0, 0, 1, -1.60027, 0);animation-play-state:paused" ></circle>
<circle cx="297.96187116241356" cy="850.0940047179042" r="86.30684642416057" fill="#dfe5fb" transform="matrix(1,0,0,1,-3.0886495113372803,0)" style="transform:matrix(1, 0, 0, 1, -3.08865, 0);animation-play-state:paused" ></circle>
<circle cx="384.2687175865741" cy="866.1964404378317" r="43.07721091564168" fill="#dfe5fb" transform="matrix(1,0,0,1,-5,0)" style="transform:matrix(1, 0, 0, 1, -5, 0);animation-play-state:paused" ></circle>
<circle cx="427.34592850221577" cy="851.1213000142956" r="86.41220282816352" fill="#dfe5fb" transform="matrix(1,0,0,1,-6.911351203918457,0)" style="transform:matrix(1, 0, 0, 1, -6.91135, 0);animation-play-state:paused" ></circle>
<circle cx="513.7581313303792" cy="844.6616159424138" r="49.530193709366735" fill="#dfe5fb" transform="matrix(1,0,0,1,-8.39973258972168,0)" style="transform:matrix(1, 0, 0, 1, -8.39973, 0);animation-play-state:paused" ></circle>
<circle cx="563.2883250397459" cy="834.3524687479061" r="52.941678620810926" fill="#dfe5fb" transform="matrix(1,0,0,1,-9.355050086975098,0)" style="transform:matrix(1, 0, 0, 1, -9.35505, 0);animation-play-state:paused" ></circle>
<circle cx="616.2300036605568" cy="834.722664425525" r="41.360745756737096" fill="#dfe5fb" transform="matrix(1,0,0,1,-9.853780746459961,0)" style="transform:matrix(1, 0, 0, 1, -9.85378, 0);animation-play-state:paused" ></circle>
<circle cx="657.5907494172939" cy="821.1385124061221" r="49.602134784341985" fill="#dfe5fb" transform="matrix(1,0,0,1,-10,0)" style="transform:matrix(1, 0, 0, 1, -10, 0);animation-play-state:paused" ></circle>
<circle cx="707.1928842016358" cy="778.112448544045" r="80.55928508425833" fill="#dfe5fb" transform="matrix(1,0,0,1,-9.853780746459961,0)" style="transform:matrix(1, 0, 0, 1, -9.85378, 0);animation-play-state:paused" ></circle>
<circle cx="0" cy="865.6545429304986" r="54.454547557917856" fill="#ecedfc" transform="matrix(1,0,0,1,0,0)" style="transform:matrix(1, 0, 0, 1, 0, 0);animation-play-state:paused" ></circle>
<circle cx="54.454547557917856" cy="874.131454180909" r="55.71383375079728" fill="#ecedfc" transform="matrix(1,0,0,1,-0.2146373838186264,0)" style="transform:matrix(1, 0, 0, 1, -0.214637, 0);animation-play-state:paused" ></circle>
<circle cx="110.16838130871514" cy="858.4043502593391" r="86.70148337117217" fill="#ecedfc" transform="matrix(1,0,0,1,-0.9663266539573669,0)" style="transform:matrix(1, 0, 0, 1, -0.966327, 0);animation-play-state:paused" ></circle>
<circle cx="196.8698646798873" cy="901.1162950187133" r="54.150021240105325" fill="#ecedfc" transform="matrix(1,0,0,1,-2.4294822216033936,0)" style="transform:matrix(1, 0, 0, 1, -2.42948, 0);animation-play-state:paused" ></circle>
<circle cx="251.01988591999265" cy="909.4171325369101" r="57.77043885672772" fill="#ecedfc" transform="matrix(1,0,0,1,-4.600759983062744,0)" style="transform:matrix(1, 0, 0, 1, -4.60076, 0);animation-play-state:paused" ></circle>
<circle cx="308.79032477672035" cy="914.8348791866568" r="88.13828885868556" fill="#ecedfc" transform="matrix(1,0,0,1,-6.911355018615723,0)" style="transform:matrix(1, 0, 0, 1, -6.91136, 0);animation-play-state:paused" ></circle>
<circle cx="396.9286136354059" cy="924.1034825000863" r="64.5978028586344" fill="#ecedfc" transform="matrix(1,0,0,1,-8.632269859313965,0)" style="transform:matrix(1, 0, 0, 1, -8.63227, 0);animation-play-state:paused" ></circle>
<circle cx="461.5264164940403" cy="918.7514656212512" r="38.34514817697594" fill="#ecedfc" transform="matrix(1,0,0,1,-9.603246688842773,0)" style="transform:matrix(1, 0, 0, 1, -9.60325, 0);animation-play-state:paused" ></circle>
<circle cx="499.87156467101624" cy="902.6895343880894" r="63.5237093588754" fill="#ecedfc" transform="matrix(1,0,0,1,-9.977882385253906,0)" style="transform:matrix(1, 0, 0, 1, -9.97788, 0);animation-play-state:paused" ></circle>
<circle cx="563.3952740298917" cy="905.2667199899402" r="39.29949487829942" fill="#ecedfc" transform="matrix(1,0,0,1,-9.908177375793457,0)" style="transform:matrix(1, 0, 0, 1, -9.90818, 0);animation-play-state:paused" ></circle>
<circle cx="602.6947689081911" cy="904.6106150427886" r="33.65219025377735" fill="#ecedfc" transform="matrix(1,0,0,1,-9.355046272277832,0)" style="transform:matrix(1, 0, 0, 1, -9.35505, 0);animation-play-state:paused" ></circle>
<circle cx="636.3469591619685" cy="854.4152332435332" r="85.57249628242758" fill="#ecedfc" transform="matrix(1,0,0,1,-8.14531421661377,0)" style="transform:matrix(1, 0, 0, 1, -8.14531, 0);animation-play-state:paused" ></circle>
<circle cx="721.919455444396" cy="893.643708446724" r="31.746938747918435" fill="#ecedfc" transform="matrix(1,0,0,1,-6.180017471313477,0)" style="transform:matrix(1, 0, 0, 1, -6.18002, 0);animation-play-state:paused" ></circle>
<circle cx="753.6663941923144" cy="883.5273488780969" r="37.05309089754606" fill="#ecedfc" transform="matrix(1,0,0,1,-3.8199596405029297,0)" style="transform:matrix(1, 0, 0, 1, -3.81996, 0);animation-play-state:paused" ></circle>
<circle cx="0" cy="932.2929221216763" r="50.58923156526976" fill="#f7f5fd" transform="matrix(1,0,0,1,0,0)" style="transform:matrix(1, 0, 0, 1, 0, 0);animation-play-state:paused" ></circle>
<circle cx="50.58923156526976" cy="916.9732216793255" r="73.56591820680563" fill="#f7f5fd" transform="matrix(1,0,0,1,-0.297871857881546,0)" style="transform:matrix(1, 0, 0, 1, -0.297872, 0);animation-play-state:paused" ></circle>
<circle cx="124.15514977207539" cy="965.8907522691578" r="34.26091297747557" fill="#f7f5fd" transform="matrix(1,0,0,1,-1.3677345514297485,0)" style="transform:matrix(1, 0, 0, 1, -1.36773, 0);animation-play-state:paused" ></circle>
<circle cx="158.41606274955097" cy="951.2324472938842" r="61.56178062079912" fill="#f7f5fd" transform="matrix(1,0,0,1,-3.4464633464813232,0)" style="transform:matrix(1, 0, 0, 1, -3.44646, 0);animation-play-state:paused" ></circle>
<circle cx="219.9778433703501" cy="974.6414949843253" r="38.5850587104176" fill="#f7f5fd" transform="matrix(1,0,0,1,-6.1800312995910645,0)" style="transform:matrix(1, 0, 0, 1, -6.18003, 0);animation-play-state:paused" ></circle>
<circle cx="258.5629020807677" cy="973.21534107707" r="56.72790991897629" fill="#f7f5fd" transform="matrix(1,0,0,1,-8.399735450744629,0)" style="transform:matrix(1, 0, 0, 1, -8.39974, 0);animation-play-state:paused" ></circle>
<circle cx="315.290811999744" cy="986.3617462896148" r="40.97546914448234" fill="#f7f5fd" transform="matrix(1,0,0,1,-9.603246688842773,0)" style="transform:matrix(1, 0, 0, 1, -9.60325, 0);animation-play-state:paused" ></circle>
<circle cx="356.26628114422635" cy="990.9518541851342" r="75.55811683189077" fill="#f7f5fd" transform="matrix(1,0,0,1,-9.9945707321167,0)" style="transform:matrix(1, 0, 0, 1, -9.99457, 0);animation-play-state:paused" ></circle>
<circle cx="431.8243979761171" cy="980.0949832345759" r="58.224045967527545" fill="#f7f5fd" transform="matrix(1,0,0,1,-9.785361289978027,0)" style="transform:matrix(1, 0, 0, 1, -9.78536, 0);animation-play-state:paused" ></circle>
<circle cx="490.04844394364466" cy="980.0988358969303" r="31.21288064762033" fill="#f7f5fd" transform="matrix(1,0,0,1,-8.843363761901855,0)" style="transform:matrix(1, 0, 0, 1, -8.84336, 0);animation-play-state:paused" ></circle>
<circle cx="521.261324591265" cy="976.6575212302954" r="31.666151962168286" fill="#f7f5fd" transform="matrix(1,0,0,1,-6.911342620849609,0)" style="transform:matrix(1, 0, 0, 1, -6.91134, 0);animation-play-state:paused" ></circle>
<circle cx="552.9274765534333" cy="956.0946635691425" r="59.49236356563997" fill="#f7f5fd" transform="matrix(1,0,0,1,-4.205990791320801,0)" style="transform:matrix(1, 0, 0, 1, -4.20599, 0);animation-play-state:paused" ></circle>
<circle cx="612.4198401190732" cy="938.676036888962" r="66.55741544142886" fill="#f7f5fd" transform="matrix(1,0,0,1,-1.8546714782714844,0)" style="transform:matrix(1, 0, 0, 1, -1.85467, 0);animation-play-state:paused" ></circle>
<circle cx="678.977255560502" cy="911.0084928561275" r="79.19466306255595" fill="#f7f5fd" transform="matrix(1,0,0,1,-0.5121488571166992,0)" style="transform:matrix(1, 0, 0, 1, -0.512149, 0);animation-play-state:paused" ></circle>
<circle cx="758.171918623058" cy="945.6508631420887" r="36.53372171145804" fill="#f7f5fd" transform="matrix(1,0,0,1,-0.022116661071777344,0)" style="transform:matrix(1, 0, 0, 1, -0.0221167, 0);animation-play-state:paused" ></circle>
<circle cx="0" cy="959.3133980132195" r="79.73883498898373" fill="#ffffff" transform="matrix(1,0,0,1,0,0)" style="transform:matrix(1, 0, 0, 1, 0, 0);animation-play-state:paused" ></circle>
<circle cx="79.73883498898373" cy="991.7302976581353" r="67.48873950420143" fill="#ffffff" transform="matrix(1,0,0,1,-0.3967548906803131,0)" style="transform:matrix(1, 0, 0, 1, -0.396755, 0);animation-play-state:paused" ></circle>
<circle cx="147.22757449318516" cy="1028.7814757042086" r="36.65387697619676" fill="#ffffff" transform="matrix(1,0,0,1,-1.8546782732009888,0)" style="transform:matrix(1, 0, 0, 1, -1.85468, 0);animation-play-state:paused" ></circle>
<circle cx="183.88145146938191" cy="1002.9117370537836" r="87.59792390442757" fill="#ffffff" transform="matrix(1,0,0,1,-4.60075569152832,0)" style="transform:matrix(1, 0, 0, 1, -4.60076, 0);animation-play-state:paused" ></circle>
<circle cx="271.4793753738095" cy="1034.97813885943" r="65.37948273178775" fill="#ffffff" transform="matrix(1,0,0,1,-7.57051944732666,0)" style="transform:matrix(1, 0, 0, 1, -7.57052, 0);animation-play-state:paused" ></circle>
<circle cx="336.8588581055972" cy="1048.8393885160976" r="67.69929206919889" fill="#ffffff" transform="matrix(1,0,0,1,-9.355050086975098,0)" style="transform:matrix(1, 0, 0, 1, -9.35505, 0);animation-play-state:paused" ></circle>
<circle cx="404.5581501747961" cy="1050.0195950444568" r="37.765049026105814" fill="#ffffff" transform="matrix(1,0,0,1,-9.977882385253906,0)" style="transform:matrix(1, 0, 0, 1, -9.97788, 0);animation-play-state:paused" ></circle>
<circle cx="442.3231992009019" cy="1036.652277953869" r="71.612586333352" fill="#ffffff" transform="matrix(1,0,0,1,-9.78536319732666,0)" style="transform:matrix(1, 0, 0, 1, -9.78536, 0);animation-play-state:paused" ></circle>
<circle cx="513.9357855342539" cy="1037.1700121998635" r="36.24204721063943" fill="#ffffff" transform="matrix(1,0,0,1,-8.632266998291016,0)" style="transform:matrix(1, 0, 0, 1, -8.63227, 0);animation-play-state:paused" ></circle>
<circle cx="550.1778327448933" cy="1007.6896590701849" r="77.39489332135449" fill="#ffffff" transform="matrix(1,0,0,1,-6.180026531219482,0)" style="transform:matrix(1, 0, 0, 1, -6.18003, 0);animation-play-state:paused" ></circle>
<circle cx="627.5727260662478" cy="986.664323885093" r="78.9019900705173" fill="#ffffff" transform="matrix(1,0,0,1,-3.088648796081543,0)" style="transform:matrix(1, 0, 0, 1, -3.08865, 0);animation-play-state:paused" ></circle>
<circle cx="706.4747161367651" cy="967.5181314385102" r="77.70345678107216" fill="#ffffff" transform="matrix(1,0,0,1,-0.9663257598876953,0)" style="transform:matrix(1, 0, 0, 1, -0.966326, 0);animation-play-state:paused" ></circle></g></svg>